#!OML:ASF H:\ManfredETheater\Project 1\Capture day 1\Session 1\subject.ASF
:FULLY-SPECIFIED
:DEGREES
94
root -0.469082 21.2281 -5.53543 4.10329 -1.81707 -1.24458
lowerback 16.4278 1.01837 0.222255
upperback 0.260955 1.41102 0.236796
thorax -8.95558 0.671696 -0.206736
lowerneck -18.8166 -1.79289 -3.02346
upperneck 12.1975 -1.943 1.8991
head 6.84579 -0.905582 0.889063
rclavicle -2.51587e-015 1.73937e-015
rhumerus -52.8159 8.21422 -96.0389
rradius 84.6177
rwrist -5.59987
rhand -22.9989 9.80287
rfingers 7.12502
rthumb 3.4442 -20.1491
lclavicle -2.51587e-015 1.73937e-015
lhumerus -61.0597 -8.81915 100.704
lradius 103.588
lwrist 15.6096
lhand -18.8019 -16.367
lfingers 7.12502
lthumb 7.49634 13.4802
rfemur -16.1307 -10.7798 21.0769
rtibia 73.9884
rfoot 1.83831 -15.1119
rtoes -10.7449
lfemur -44.0011 0.0375297 -23.9868
ltibia 49.6432
lfoot -10.9438 -9.39804
ltoes -8.8232
95
root -0.501886 21.2365 -5.09093 3.98375 -1.0255 -0.270881
lowerback 16.5062 0.660315 -0.635007
upperback 0.166022 0.74234 -0.107236
thorax -9.11122 0.380677 0.0666081
lowerneck -18.8977 -1.73483 -2.96714
upperneck 12.5971 -1.91219 2.0781
head 6.99022 -0.87144 0.94146
rclavicle 4.78326e-015 -2.28602e-015
rhumerus -53.5271 7.42599 -95.7872
rradius 82.594
rwrist -5.86554
rhand -23.1203 9.77635
rfingers 7.12502
rthumb 3.32691 -20.1774
lclavicle 4.78326e-015 -2.28602e-015
lhumerus -59.406 -10.0849 100.975
lradius 103.882
lwrist 15.2725
lhand -18.8883 -16.2427
lfingers 7.12502
lthumb 7.41301 13.6074
rfemur -18.5787 -11.9386 19.9008
rtibia 76.83
rfoot 0.137449 -14.7788
rtoes -11.1784
lfemur -42.806 -0.811668 -25.0617
ltibia 50.6183
lfoot -11.5588 -9.1303
ltoes -6.35973
96
root -0.534784 21.2365 -4.65042 3.96587 -0.250003 0.702796
lowerback 16.5436 0.330406 -1.49638
upperback 0.0724949 0.10843 -0.438436
thorax -9.23146 0.108711 0.35006
lowerneck -19.032 -1.70671 -2.94342
upperneck 12.9435 -1.90952 2.24078
head 7.12741 -0.852988 0.990739
rclavicle -1.49089e-015 2.48481e-015
rhumerus -54.3538 6.63079 -95.4419
rradius 80.8863
rwrist -6.02852
rhand -23.3276 9.78588
rfingers 7.12502
rthumb 3.12677 -20.1709
lclavicle -1.49089e-015 2.48481e-015
lhumerus -57.6303 -11.46 101.202
lradius 104.267
lwrist 15.1463
lhand -18.9649 -16.0899
lfingers 7.12502
lthumb 7.33905 13.7628
rfemur -21.1639 -12.9942 18.7797
rtibia 79.3865
rfoot -1.47962 -14.3092
rtoes -11.7396
lfemur -41.6748 -1.65083 -26.1207
ltibia 51.596
lfoot -12.4466 -8.74509
ltoes -3.88746
97
root -0.566565 21.2295 -4.21252 4.02473 0.433471 1.61252
lowerback 16.546 0.0520647 -2.30357
upperback -0.00898765 -0.445039 -0.738141
thorax -9.30976 -0.125309 0.617944
lowerneck -19.2112 -1.7131 -2.95709
upperneck 13.2194 -1.93938 2.38719
head 7.25048 -0.852799 1.03702
rclavicle 1.83876e-015 -3.57812e-015
rhumerus -55.3113 5.85984 -95.0061
rradius 79.5409
rwrist -6.11556
rhand -23.6185 9.81927
rfingers 7.12502
rthumb 2.8458 -20.1415
lclavicle 1.83876e-015 -3.57812e-015
lhumerus -55.7231 -12.911 101.379
lradius 104.754
lwrist 15.2693
lhand -19.0151 -15.9392
lfingers 7.12502
lthumb 7.29056 13.9152
rfemur -23.8509 -13.8654 17.7827
rtibia 81.6212
rfoot -2.98231 -13.7471
rtoes -12.4416
lfemur -40.5394 -2.3971 -27.0998
ltibia 52.511
lfoot -13.6217 -8.29079
ltoes -1.96287
